# xmcd
#
# Track frame offsets:
#	187
#	16370
#	30755
#	44407
#	58317
#	71397
#	82887
#	97822
#	114710
#	130467
#
# Disc length: 1943 seconds
#
# Revision: 1
# Processed by: cddbd v1.4PL0 Copyright (c) Steve Scherf et al.
# Submitted via: audiograbber 1.80.04
#
DISCID=7a07950a
DTITLE=B B Watson - Light At The End Of The Tunnel
DYEAR=1991
DGENRE=Country
TTITLE0=Light At The End Of The Tunnel
TTITLE1=Honkytonk The Town Tonight
TTITLE2=Hank Drank
TTITLE3=Eye For An Eye
TTITLE4=Drop Dead Smile
TTITLE5=Overnight Male
TTITLE6=Lover Not A Fighter
TTITLE7=Good Intentions
TTITLE8=Bottle Of Whiskey
TTITLE9=Say Goodbye
EXTD=
EXTT0=
EXTT1=
EXTT2=
EXTT3=
EXTT4=
EXTT5=
EXTT6=
EXTT7=
EXTT8=
EXTT9=
PLAYORDER=
